<svg xmlns="http://www.w3.org/2000/svg" viewBox="0 0 343.18 481.33"><defs><style>.cls-1,.cls-10{fill:#f2efec;}.cls-1,.cls-3{stroke:#aaa5a1;}.cls-1,.cls-11,.cls-3,.cls-7,.cls-8,.cls-9{stroke-linecap:round;stroke-linejoin:round;}.cls-1{stroke-width:10px;}.cls-2{fill:#848382;}.cls-11,.cls-3,.cls-8,.cls-9{fill:none;}.cls-3{stroke-width:4px;}.cls-4{fill:#cdc3ba;}.cls-5{fill:#d5b694;}.cls-6{fill:#f5a54a;}.cls-13,.cls-7{fill:#fbd1c9;}.cls-7{stroke:#fbd1c9;}.cls-11,.cls-7{stroke-width:2px;}.cls-8{stroke:#848382;stroke-width:5px;}.cls-11,.cls-9{stroke:#353334;}.cls-12{fill:#353334;}</style></defs><title>Asset 10</title><g id="Layer_2" data-name="Layer 2"><g id="Layer_2-2" data-name="Layer 2"><path class="cls-1" d="M5,93S37.05,13.25,147.81,5.7,294.43,54.42,294.43,54.42l31.16-17.61s20.78,15,9,78.67l-34.76-14.27s-39.89,63.07-136.92,64.94S5,93,5,93Z"/><circle class="cls-2" cx="55.69" cy="88.3" r="6.89"/><line class="cls-3" x1="306.17" y1="68.85" x2="321.9" y2="63.05"/><line class="cls-3" x1="308.74" y1="78.26" x2="322.72" y2="79.32"/><line class="cls-3" x1="309.23" y1="88.02" x2="320.04" y2="92.59"/><path class="cls-4" d="M220.4,220.24s11.66-30.8,12.75-38.82,1.46-29.14,12.75-29.14,12,13.12,12,13.12,4,47.35-16.76,130.76c0,0,7.65,60.83,2.92,98.71s-2.92,56.46-2.92,56.46,2.92,25.13-11.65,26.23-20.4-9.48-20.4-9.48-17.48-33.14-37.88-33.14-33.88,30.23-33.88,30.23-4.73,17.85-19.3,16-17.49-17.49-17.49-17.49S90,430.93,94.74,301.26c0,0-31.33-91.43-22.59-135.86,0,0-1.45-9.84,7.29-11.29s10.93,7.28,10.93,7.28,12.38,52.82,18.21,62.65c0,0,1.09-36.06,8.74-44.44,0,0-.79-17.48,6.56-18.21s20.76,11.66,20.76,11.66,23.17-5.83,40.18.36c0,0,6.08-9.19,17-9.7s8.38,12.61,8.38,12.61S221.49,194.23,220.4,220.24Z"/><path class="cls-2" d="M135.84,469.21c-2.37,5.15-7.74,13.25-17.79,12a19,19,0,0,1-13.94-9c1.76-6.38,8.47-11.14,16.49-11.14C127.3,461.06,133.1,464.38,135.84,469.21Z"/><path class="cls-2" d="M241.34,459c-.38,7.49-2.6,17.83-11.83,18.52-10.46.78-16.42-4.44-18.94-7.45a12.49,12.49,0,0,1-.43-3.25c0-8,7.58-14.48,16.94-14.48A17.78,17.78,0,0,1,241.34,459Z"/><path class="cls-2" d="M92.87,171.77a13.07,13.07,0,0,1-21.81,1.52,76.94,76.94,0,0,1,1.1-7.89s-1.46-9.83,7.28-11.29,10.93,7.28,10.93,7.28S91.35,165.56,92.87,171.77Z"/><path class="cls-2" d="M258.15,170a13.08,13.08,0,0,1-23.49-1.2h0c1.36-8.19,4.14-16.54,11.24-16.54,11.29,0,12,13.11,12,13.11S258.05,167,258.15,170Z"/><path class="cls-5" d="M162.47,244.35a5.92,5.92,0,0,0-1.35,4c-24.48-.66-44.06-14.19-44.95-14.81a2,2,0,1,1,2.3-3.27C118.68,230.39,138.6,244.14,162.47,244.35Z"/><path class="cls-5" d="M216.14,230c-.83.62-19,14-42.53,17.53a5.53,5.53,0,0,0-1.87-3.79c23.25-3.06,41.8-16.79,42-16.94a2,2,0,1,1,2.4,3.2Z"/><path class="cls-6" d="M173.65,248.26a6.16,6.16,0,0,1-5.26,6.42l-.11-4.42s.93-1.38.48-2.15c-.2-.36-.71-.59-1.74-.49s-1.32.35-1.48.69c-.45.91,1.06,2.37,1.06,2.37v4s-5.48-.21-5.48-6.32v0a5.92,5.92,0,0,1,1.35-4,7.66,7.66,0,0,1,5.07-2.3,8.06,8.06,0,0,1,4.2,1.71,5.53,5.53,0,0,1,1.87,3.79A5.43,5.43,0,0,1,173.65,248.26Z"/><path class="cls-7" d="M125.76,170.76s-5,12.24,2.31,9.07S125.76,170.76,125.76,170.76Z"/><path class="cls-7" d="M203.1,168.31s-11.24,5.19-4.18,8.79S203.1,168.31,203.1,168.31Z"/><path class="cls-8" d="M111.86,412s-10.57-4.73-16-10.2"/><path class="cls-8" d="M113.68,427.29s-11.29-4-17.85-8.38"/><path class="cls-8" d="M111.86,441.86s-9.84-3.69-15.67-7.13"/><path class="cls-8" d="M227.5,402s10.19-1.05,14.57-4.73"/><path class="cls-8" d="M223.59,420.82A23.73,23.73,0,0,0,241.07,413"/><path class="cls-8" d="M222.4,436.76s10.93,0,17.49-5.83"/><line class="cls-8" x1="152.12" y1="173.03" x2="156.87" y2="188.76"/><line class="cls-8" x1="164.42" y1="171.63" x2="165.44" y2="186.75"/><line class="cls-8" x1="175.74" y1="173.03" x2="175.74" y2="186.75"/><line class="cls-9" x1="78.38" y1="155.03" x2="80.06" y2="160.33"/><line class="cls-9" x1="74.63" y1="157.68" x2="76.05" y2="160.98"/><line class="cls-9" x1="83.16" y1="155.03" x2="83.16" y2="158.78"/><line class="cls-9" x1="247.86" y1="153.61" x2="246.69" y2="159.3"/><line class="cls-9" x1="251.86" y1="155.42" x2="250.44" y2="158.65"/><line class="cls-9" x1="243.21" y1="153.61" x2="243.85" y2="157.62"/><line class="cls-9" x1="229.89" y1="470.25" x2="231.33" y2="475.25"/><line class="cls-9" x1="233.64" y1="470.25" x2="233.64" y2="473.53"/><line class="cls-9" x1="225.83" y1="471.89" x2="228.33" y2="475.25"/><line class="cls-9" x1="119.14" y1="472.75" x2="119.14" y2="478.06"/><line class="cls-9" x1="123.36" y1="473.37" x2="121.8" y2="477.28"/><line class="cls-9" x1="114.45" y1="473.37" x2="115.7" y2="477.28"/><ellipse class="cls-10" cx="167.38" cy="343.16" rx="48.55" ry="65.95"/><line class="cls-9" x1="206.92" y1="209.83" x2="226.26" y2="204.15"/><line class="cls-9" x1="209.47" y1="213.11" x2="228.48" y2="211.73"/><line class="cls-9" x1="208.17" y1="216.26" x2="226.26" y2="219.41"/><path class="cls-11" d="M183.86,210.36a5.4,5.4,0,0,0,4.1,2.06,6.24,6.24,0,0,0,4.21-2.06"/><path class="cls-11" d="M137.54,210.36a5.43,5.43,0,0,0,4.1,2.06,6.24,6.24,0,0,0,4.21-2.06"/><line class="cls-9" x1="124.92" y1="213.73" x2="105.55" y2="207.73"/><line class="cls-9" x1="123.13" y1="216.26" x2="103.66" y2="215.31"/><line class="cls-9" x1="123.13" y1="219.5" x2="106.18" y2="222.99"/><path class="cls-9" d="M165.44,216.26a5.53,5.53,0,0,0,7.57,2.63"/><path class="cls-9" d="M165.74,216.26a5.53,5.53,0,0,1-7.57,2.63"/><circle class="cls-12" cx="165.74" cy="214.76" r="2"/><path class="cls-13" d="M168.24,220.25c0,2.37-1.19,4.3-2.65,4.3s-2.65-1.93-2.65-4.3a7,7,0,0,1,.11-1.23,6.11,6.11,0,0,0,2.55-2.47,6,6,0,0,0,2.53,2.46A7.06,7.06,0,0,1,168.24,220.25Z"/><path class="cls-9" d="M163.05,219a6.11,6.11,0,0,0,2.55-2.47,6,6,0,0,0,2.53,2.46"/></g></g></svg>